<svg xmlns="http://www.w3.org/2000/svg" viewBox="0 0 800 600">
  <!-- Purple background -->
  <rect width="800" height="600" fill="#6B73E8"/>
  
  <!-- White card -->
  <rect x="100" y="50" width="600" height="500" rx="20" fill="white"/>
  
  <!-- Green header -->
  <rect x="100" y="50" width="600" height="100" rx="20" fill="#4a7c2c"/>
  <rect x="100" y="125" width="600" height="25" fill="#4a7c2c"/>
  
  <!-- Desk -->
  <rect x="250" y="350" width="300" height="150" rx="8" fill="#8B4513"/>
  <rect x="245" y="340" width="310" height="20" rx="4" fill="#A0522D"/>
  
  <!-- Bear body -->
  <ellipse cx="400" cy="320" rx="60" ry="70" fill="#8B5A3C"/>
  
  <!-- Bear head -->
  <circle cx="400" cy="260" r="50" fill="#8B5A3C"/>
  
  <!-- Ears -->
  <circle cx="370" cy="230" r="20" fill="#8B5A3C"/>
  <circle cx="430" cy="230" r="20" fill="#8B5A3C"/>
  <circle cx="370" cy="235" r="12" fill="#D4A574"/>
  <circle cx="430" cy="235" r="12" fill="#D4A574"/>
  
  <!-- Snout -->
  <ellipse cx="400" cy="270" rx="30" ry="25" fill="#D4A574"/>
  
  <!-- Eyes -->
  <circle cx="385" cy="255" r="6" fill="#2C1810"/>
  <circle cx="415" cy="255" r="6" fill="#2C1810"/>
  <circle cx="387" cy="253" r="2" fill="white"/>
  <circle cx="417" cy="253" r="2" fill="white"/>
  
  <!-- Nose -->
  <ellipse cx="400" cy="268" rx="8" ry="6" fill="#2C1810"/>
  
  <!-- Smile -->
  <path d="M 390 275 Q 400 280 410 275" stroke="#2C1810" stroke-width="2" fill="none"/>
  
  <!-- Vest -->
  <path d="M 360 290 L 355 315 L 370 355 L 400 360 L 430 355 L 445 315 L 440 290 Z" fill="#2C3E50"/>
  
  <!-- Bow tie -->
  <path d="M 385 285 L 380 290 L 385 295 L 395 290 Z" fill="#E74C3C"/>
  <path d="M 415 285 L 420 290 L 415 295 L 405 290 Z" fill="#E74C3C"/>
  <rect x="393" y="288" width="14" height="4" fill="#E74C3C" rx="1"/>
  
  <!-- Vest buttons -->
  <circle cx="400" cy="310" r="3" fill="#ECF0F1"/>
  <circle cx="400" cy="325" r="3" fill="#ECF0F1"/>
  <circle cx="400" cy="340" r="3" fill="#ECF0F1"/>
  
  <!-- Paws on desk -->
  <ellipse cx="360" cy="360" rx="15" ry="20" fill="#8B5A3C"/>
  <ellipse cx="440" cy="360" rx="15" ry="20" fill="#8B5A3C"/>
  <ellipse cx="360" cy="365" rx="10" ry="12" fill="#D4A574"/>
  <ellipse cx="440" cy="365" rx="10" ry="12" fill="#D4A574"/>
  
  <!-- Note: This is a placeholder. Replace with actual image -->
  <text x="400" y="550" text-anchor="middle" font-size="14" fill="#666">
    Placeholder - Add bear-concierge.png to public/images/
  </text>
</svg>
